<svg viewBox="0 0 200 200" xmlns="http://www.w3.org/2000/svg">
    <path fill="#FF0066" d="M36.9,-66.2C42.7,-60.5,38.7,-40.3,35.6,-26.8C32.6,-13.4,30.3,-6.7,38.7,4.8C47.1,16.4,66.1,32.8,69.3,46.4C72.6,60.1,60,71.1,45.8,69.7C31.6,68.2,15.8,54.4,4.4,46.8C-7.1,39.3,-14.1,38,-21.9,35.7C-29.6,33.4,-38,30.1,-39.7,24C-41.3,17.8,-36.3,8.9,-38.7,-1.4C-41,-11.6,-50.7,-23.3,-53.8,-37.7C-56.9,-52.1,-53.4,-69.3,-43.4,-72.5C-33.3,-75.8,-16.6,-65.1,-0.6,-64.1C15.5,-63.1,31.1,-71.9,36.9,-66.2Z" transform="translate(100 100)"></path>
</svg>
