<svg viewBox="0 0 200 200" xmlns="http://www.w3.org/2000/svg">
		<path fill="#1175d3" d="M31.7,-54.2C41.4,-49.2,49.9,-41.5,53.1,-32C56.3,-22.5,54.2,-11.2,56.4,1.3C58.7,13.8,65.3,27.7,63.5,39.7C61.8,51.7,51.7,61.9,39.7,66.5C27.7,71.1,13.9,70.1,2.6,65.6C-8.7,61.1,-17.3,53,-28.9,48.2C-40.5,43.4,-55.1,41.8,-63.9,34.3C-72.7,26.8,-75.7,13.4,-78.5,-1.6C-81.3,-16.6,-83.7,-33.2,-78.8,-47.4C-73.9,-61.6,-61.5,-73.4,-47.2,-75.8C-32.8,-78.1,-16.4,-71,-2.7,-66.3C11,-61.5,21.9,-59.3,31.7,-54.2Z" transform="translate(100 100)"></path>
</svg>
